<?xml version="1.0" encoding="UTF-8" standalone="no" ?>
<!DOCTYPE svg PUBLIC "-//W3C//DTD SVG 1.1//EN" "http://www.w3.org/Graphics/SVG/1.1/DTD/svg11.dtd">
<svg xmlns="http://www.w3.org/2000/svg" xmlns:xlink="http://www.w3.org/1999/xlink" version="1.1" width="1280" height="1024" viewBox="0 0 1280 1024" xml:space="preserve">
<desc>Created with Fabric.js 5.3.0</desc>
<defs>
</defs>
<g transform="matrix(1 0 0 1 640 512)" id="background-logo"  >
<rect style="stroke: none; stroke-width: 0; stroke-dasharray: none; stroke-linecap: butt; stroke-dashoffset: 0; stroke-linejoin: miter; stroke-miterlimit: 4; fill: rgb(255,255,255); fill-opacity: 0; fill-rule: nonzero; opacity: 1;"  paint-order="stroke"  x="-640" y="-512" rx="0" ry="0" width="1280" height="1024" />
</g>
<g transform="matrix(3.06561655868632 0 0 3.06561655868632 344.87018353460195 422.2520925464038)" id="logo-logo"  >
<g style=""  paint-order="stroke"   >
		<g transform="matrix(0.2158346789161846 0 0 -0.21583467891618463 0 0)"  >
<path style="stroke: none; stroke-width: 1; stroke-dasharray: none; stroke-linecap: butt; stroke-dashoffset: 0; stroke-linejoin: miter; stroke-miterlimit: 10; fill: rgb(94,163,243); fill-rule: nonzero; opacity: 1;"  paint-order="stroke"  transform=" translate(-11046.300000000003, -2108.9)" d="M 11397.1 2460.98 C 11377.4 2480.64 11356 2498.53 11333.2 2514.67 C 11329.900000000001 2517.02 11326.7 2519.41 11323.300000000001 2521.67 C 11277.300000000001 2552.62 11225.800000000001 2576.08 11170.6 2590.3 C 11130.9 2600.51 11089.2 2605.9700000000003 11046.300000000001 2605.9700000000003 C 11003.400000000001 2605.9700000000003 10961.7 2600.51 10922.000000000002 2590.3 C 10866.800000000001 2576.0800000000004 10815.300000000001 2552.6200000000003 10769.300000000001 2521.67 C 10766.000000000002 2519.41 10762.7 2517.02 10759.400000000001 2514.67 C 10736.600000000002 2498.53 10715.2 2480.64 10695.500000000002 2460.98 C 10605.100000000002 2370.9900000000002 10549.200000000003 2246.48 10549.200000000003 2108.9 C 10549.200000000003 1971.3000000000002 10605.100000000002 1846.8000000000002 10695.500000000002 1756.79 C 10715.200000000003 1737.1299999999999 10736.600000000002 1719.23 10759.400000000001 1703.09 C 10762.800000000001 1700.74 10766.000000000002 1698.34 10769.400000000001 1696.07 C 10815.400000000001 1665.1499999999999 10866.900000000001 1641.6799999999998 10922.100000000002 1627.48 C 10961.800000000003 1617.25 11003.400000000001 1611.83 11046.300000000003 1611.83 C 11089.200000000003 1611.83 11130.800000000003 1617.25 11170.600000000002 1627.48 C 11225.700000000003 1641.68 11277.200000000003 1665.15 11323.200000000003 1696.07 C 11326.600000000002 1698.34 11329.900000000003 1700.74 11333.200000000003 1703.09 C 11356.000000000002 1719.23 11377.400000000003 1737.1299999999999 11397.100000000002 1756.79 C 11487.500000000002 1846.8 11543.400000000001 1971.3 11543.400000000001 2108.9 C 11543.400000000001 2246.48 11487.500000000002 2370.9900000000002 11397.100000000002 2460.98 z M 11333.2 2407.28 C 11402.2 2340.8900000000003 11448.400000000001 2250.9500000000003 11458.400000000001 2150.3 L 11292.900000000001 2150.3 C 11286.900000000001 2223.02 11265.400000000001 2291.3 11231.400000000001 2351.78 C 11267.7 2366.32 11301.800000000001 2385 11333.2 2407.28 z M 10922 2504.1000000000004 C 10952.6 2513.7000000000003 10984.7 2519.4300000000003 11017.9 2521.6700000000005 C 11027.3 2522.3200000000006 11036.699999999999 2523.1300000000006 11046.3 2523.1300000000006 C 11055.9 2523.1300000000006 11065.3 2522.3200000000006 11074.699999999999 2521.6700000000005 C 11107.9 2519.4300000000007 11139.999999999998 2513.7000000000007 11170.599999999999 2504.1000000000004 C 11203.699999999999 2493.6800000000003 11234.8 2478.9000000000005 11263.8 2460.9800000000005 C 11238.599999999999 2445.3800000000006 11211.699999999999 2432.4800000000005 11183.3 2422.5200000000004 C 11153.9 2412.1900000000005 11123.099999999999 2404.7700000000004 11091.099999999999 2401.3300000000004 C 11076.399999999998 2399.7500000000005 11061.399999999998 2398.82 11046.3 2398.82 C 11031.199999999999 2398.82 11016.3 2399.75 11001.5 2401.3300000000004 C 10969.5 2404.7700000000004 10938.7 2412.1900000000005 10909.3 2422.5200000000004 C 10880.9 2432.4800000000005 10854 2445.3800000000006 10828.9 2460.9800000000005 C 10857.8 2478.9000000000005 10888.9 2493.6800000000003 10922 2504.1000000000004 z M 11212 2108.8600000000006 C 11212 2028.8100000000006 11188.9 1954.3200000000006 11149.6 1890.9500000000005 C 11129.4 1895.2100000000005 11108.7 1898.1100000000006 11087.7 1899.8900000000006 L 11087.7 2317.8800000000006 C 11108.7 2319.6600000000008 11129.400000000001 2322.5500000000006 11149.6 2326.8200000000006 C 11188.9 2263.4500000000007 11212 2188.9400000000005 11212 2108.8600000000006 z M 11004.9 2317.8800000000006 L 11004.9 1899.8900000000006 C 10983.9 1898.1100000000006 10963.199999999999 1895.2100000000005 10943 1890.9500000000005 C 10903.7 1954.3200000000004 10880.6 2028.8100000000004 10880.6 2108.8600000000006 C 10880.6 2188.9400000000005 10903.7 2263.4500000000007 10943 2326.8200000000006 C 10963.2 2322.5500000000006 10983.9 2319.6600000000008 11004.9 2317.8800000000006 z M 10759.4 2407.2800000000007 C 10790.8 2385.0000000000005 10824.9 2366.3200000000006 10861.199999999999 2351.7800000000007 C 10827.199999999999 2291.3000000000006 10805.699999999999 2223.0200000000004 10799.699999999999 2150.3000000000006 L 10634.199999999999 2150.3000000000006 C 10644.3 2250.9500000000007 10690.4 2340.890000000001 10759.4 2407.2800000000007 z M 10634.199999999999 2067.4600000000005 L 10799.699999999999 2067.4600000000005 C 10805.699999999999 1994.7500000000005 10827.199999999999 1926.4600000000005 10861.199999999999 1865.9900000000005 C 10824.9 1851.4500000000005 10790.8 1832.7600000000004 10759.4 1810.4900000000005 C 10690.4 1876.8700000000003 10644.3 1966.8200000000004 10634.199999999999 2067.4600000000005 z M 11170.599999999999 1713.6500000000005 C 11139.999999999998 1704.0600000000006 11107.899999999998 1698.3400000000006 11074.699999999999 1696.0900000000006 C 11065.3 1695.4500000000005 11055.9 1694.6300000000006 11046.3 1694.6300000000006 C 11036.699999999999 1694.6300000000006 11027.3 1695.4500000000005 11017.9 1696.0900000000006 C 10984.8 1698.3400000000006 10952.6 1704.0600000000006 10922.1 1713.6500000000005 C 10888.9 1724.0600000000006 10857.800000000001 1738.8500000000006 10828.9 1756.7900000000006 C 10854 1772.3400000000006 10880.9 1785.2900000000006 10909.3 1795.2300000000007 C 10938.699999999999 1805.5500000000006 10969.5 1812.9500000000007 11001.5 1816.4100000000008 C 11016.3 1817.9900000000007 11031.2 1818.9200000000008 11046.3 1818.9200000000008 C 11061.4 1818.9200000000008 11076.4 1817.9900000000007 11091.099999999999 1816.4100000000008 C 11123.099999999999 1812.9500000000007 11153.899999999998 1805.5500000000009 11183.3 1795.2300000000007 C 11211.699999999999 1785.2900000000006 11238.599999999999 1772.3400000000006 11263.699999999999 1756.7900000000006 C 11234.8 1738.8500000000006 11203.699999999999 1724.0600000000006 11170.599999999999 1713.6500000000005 z M 11333.199999999999 1810.4900000000005 C 11301.8 1832.7600000000004 11267.699999999999 1851.4500000000005 11231.4 1865.9900000000005 C 11265.4 1926.4600000000005 11286.9 1994.7500000000005 11292.9 2067.4600000000005 L 11458.4 2067.4600000000005 C 11448.4 1966.8200000000004 11402.199999999999 1876.8700000000006 11333.199999999999 1810.4900000000005" stroke-linecap="round" />
</g>
</g>
</g>
<g transform="matrix(1.9211538461538462 0 0 1.9211538461538462 951.82433451417 335.99020489463123)" id="text-logo"  >
<g style=""  paint-order="stroke"   >
		<g transform="matrix(1 0 0 1 0 0)" id="text-logo-path-0"  >
<path style="stroke: none; stroke-width: 3.2240736060650077; stroke-dasharray: none; stroke-linecap: butt; stroke-dashoffset: 0; stroke-linejoin: miter; stroke-miterlimit: 4; fill: rgb(94,163,243); fill-rule: nonzero; opacity: 1;"  paint-order="stroke"  transform=" translate(-112.80000000000001, 105.3)" d="M 207 -210.6 L 207 0 L 155.7 0 L 69.9 -129.9 L 69.9 0 L 18.6 0 L 18.6 -210.6 L 69.9 -210.6 L 155.7 -80.1 L 155.7 -210.6 L 207 -210.6 Z" stroke-linecap="round" />
</g>
</g>
</g>
<g transform="matrix(1.9211538461538462 0 0 1.9211538461538462 936.7776385121457 617.8783038191077)" id="tagline-b62816ac-7c46-4741-afb6-08d5108c7d9c-logo"  >
<g style=""  paint-order="stroke"   >
		<g transform="matrix(1 0 0 1 -10.299750000000017 -20.31740000000002)" id="tagline-b62816ac-7c46-4741-afb6-08d5108c7d9c-logo-path-0"  >
<path style="stroke: none; stroke-width: 0; stroke-dasharray: none; stroke-linecap: butt; stroke-dashoffset: 0; stroke-linejoin: miter; stroke-miterlimit: 4; fill: rgb(94,163,243); fill-rule: nonzero; opacity: 1;"  paint-order="stroke"  transform=" translate(-136.585, 10.385)" d="M 10.14 -21.08 C 5.33 -21.08 2.05 -18.57 2.05 -14.63 C 2.05 -11.5 3.88 -9.52 7.53 -8.71 L 11.81 -7.78 C 13.18 -7.5 13.86 -7.01 13.86 -6.29 C 13.86 -5.21 12.8 -4.65 10.7 -4.65 C 8.99 -4.65 7.25 -5.64 6.67 -7.22 L 1.55 -5.42 C 2.42 -1.71 5.95 0.31 10.42 0.31 C 13.3 0.31 16.03 -0.62 17.64 -2.63 C 18.45 -3.63 18.85 -4.87 18.85 -6.32 C 18.85 -9.46 16.99 -11.44 13.24 -12.28 L 8.99 -13.24 C 7.91 -13.48 7.16 -13.98 7.16 -14.63 C 7.16 -15.72 8.43 -16.12 10.07 -16.12 C 12.09 -16.12 13.39 -15.62 13.67 -13.92 L 18.45 -15.78 C 17.42 -19.25 14.23 -21.08 10.14 -21.08 Z M 47.18 0.34 C 51.15 0.34 54.65 -1.77 56.54 -5.05 C 57.51 -6.7 57.97 -8.46 57.97 -10.38 C 57.97 -14.23 55.92 -17.7 52.61 -19.65 C 50.96 -20.61 49.14 -21.11 47.18 -21.11 C 43.21 -21.11 39.71 -19.03 37.82 -15.75 C 36.86 -14.11 36.39 -12.31 36.39 -10.38 C 36.39 -6.54 38.44 -3.07 41.76 -1.12 C 43.4 -0.15 45.23 0.34 47.18 0.34 Z M 41.51 -10.38 C 41.51 -13.58 44.05 -16.12 47.18 -16.12 C 50.34 -16.12 52.86 -13.58 52.86 -10.38 C 52.86 -7.19 50.31 -4.65 47.18 -4.65 C 44.02 -4.65 41.51 -7.19 41.51 -10.38 Z M 80.48 0 L 80.48 -8.21 L 88.54 -8.21 L 88.54 -12.55 L 80.48 -12.55 L 80.48 -16.46 L 90.4 -16.46 L 90.4 -20.8 L 75.52 -20.77 L 75.52 0 Z M 118.48 0 L 118.48 -16.46 L 124.06 -16.46 L 124.06 -20.8 L 107.94 -20.8 L 107.94 -16.46 L 113.52 -16.46 L 113.52 0 Z M 152.12 0 L 152.09 -0.06 L 155.56 -12.15 L 159.03 -0.06 L 159 0 L 164.21 0 L 170.78 -20.77 L 165.57 -20.77 L 161.73 -8.62 L 158.26 -20.77 L 152.89 -20.77 L 149.42 -8.62 L 145.58 -20.77 L 140.37 -20.77 L 146.91 0 Z M 188.2 0 L 189.75 -4.03 L 197.31 -4.03 L 198.86 0 L 204.32 0 L 196.26 -20.77 L 190.81 -20.77 L 182.75 0 Z M 191.46 -8.37 L 193.53 -13.73 L 195.61 -8.37 Z M 239.2 0 L 234.51 -7.5 C 236.99 -8.53 238.73 -10.97 238.73 -13.89 C 238.73 -17.64 235.82 -20.61 232.1 -20.77 L 221.87 -20.77 L 221.87 0 L 226.83 0 L 226.83 -6.97 L 228.81 -6.97 L 233.18 0 Z M 231.23 -11.31 L 226.83 -11.31 L 226.83 -16.43 L 231.23 -16.43 C 232.75 -16.43 233.77 -15.38 233.77 -13.86 C 233.77 -12.34 232.75 -11.31 231.23 -11.31 Z M 256.74 0 L 271.62 0 L 271.62 -4.34 L 261.7 -4.34 L 261.7 -8.21 L 269.76 -8.21 L 269.76 -12.55 L 261.7 -12.55 L 261.7 -16.43 L 271.62 -16.43 L 271.62 -20.77 L 256.74 -20.77 Z" stroke-linecap="round" />
</g>
		<g transform="matrix(1 0 0 1 0 20.31740000000002)" id="tagline-b62816ac-7c46-4741-afb6-08d5108c7d9c-logo-path-1"  >
<path style="stroke: none; stroke-width: 0; stroke-dasharray: none; stroke-linecap: butt; stroke-dashoffset: 0; stroke-linejoin: miter; stroke-miterlimit: 4; fill: rgb(94,163,243); fill-rule: nonzero; opacity: 1;"  paint-order="stroke"  transform=" translate(-175.26, 10.385)" d="M 30.78 -21.08 C 25.98 -21.08 22.69 -18.57 22.69 -14.63 C 22.69 -11.5 24.52 -9.52 28.18 -8.71 L 32.46 -7.78 C 33.82 -7.5 34.5 -7.01 34.5 -6.29 C 34.5 -5.21 33.45 -4.65 31.34 -4.65 C 29.64 -4.65 27.9 -5.64 27.31 -7.22 L 22.2 -5.42 C 23.06 -1.71 26.6 0.31 31.06 0.31 C 33.95 0.31 36.67 -0.62 38.28 -2.63 C 39.09 -3.63 39.49 -4.87 39.49 -6.32 C 39.49 -9.46 37.63 -11.44 33.88 -12.28 L 29.64 -13.24 C 28.55 -13.48 27.81 -13.98 27.81 -14.63 C 27.81 -15.72 29.08 -16.12 30.72 -16.12 C 32.74 -16.12 34.04 -15.62 34.32 -13.92 L 39.09 -15.78 C 38.07 -19.25 34.88 -21.08 30.78 -21.08 Z M 62 0 L 62 -6.97 L 67.27 -6.97 C 70.99 -7.13 73.9 -10.11 73.9 -13.89 C 73.9 -17.64 70.99 -20.61 67.27 -20.77 L 57.04 -20.77 L 57.04 0 Z M 66.4 -11.31 L 62 -11.31 L 62 -16.43 L 66.4 -16.43 C 67.92 -16.43 68.94 -15.38 68.94 -13.86 C 68.94 -12.34 67.92 -11.31 66.4 -11.31 Z M 91.45 0 L 106.33 0 L 106.33 -4.34 L 96.41 -4.34 L 96.41 -8.21 L 104.47 -8.21 L 104.47 -12.55 L 96.41 -12.55 L 96.41 -16.43 L 106.33 -16.43 L 106.33 -20.77 L 91.45 -20.77 Z M 143.75 -4.56 L 139.31 -7.13 C 138.32 -5.64 136.65 -4.65 134.66 -4.65 C 131.5 -4.65 128.99 -7.19 128.99 -10.38 C 128.99 -13.58 131.53 -16.12 134.66 -16.12 C 136.65 -16.12 138.48 -15.07 139.5 -13.42 L 143.87 -15.96 C 141.92 -19.1 138.51 -21.11 134.66 -21.11 C 130.7 -21.11 127.19 -19.03 125.3 -15.75 C 124.34 -14.11 123.88 -12.31 123.88 -10.38 C 123.88 -6.54 125.92 -3.07 129.24 -1.12 C 130.88 -0.15 132.71 0.34 134.66 0.34 C 138.41 0.34 141.76 -1.58 143.75 -4.56 Z M 166.38 0 L 166.38 -20.77 L 161.42 -20.77 L 161.42 0 Z M 189.38 0 L 190.93 -4.03 L 198.49 -4.03 L 200.04 0 L 205.5 0 L 197.44 -20.77 L 191.98 -20.77 L 183.92 0 Z M 192.63 -8.37 L 194.71 -13.73 L 196.79 -8.37 Z M 223.04 0 L 237.3 0 L 237.3 -4.34 L 228 -4.34 L 228 -20.77 L 223.04 -20.77 Z M 259.81 0 L 259.81 -20.77 L 254.85 -20.77 L 254.85 0 Z M 285.94 -21.08 C 281.14 -21.08 277.85 -18.57 277.85 -14.63 C 277.85 -11.5 279.68 -9.52 283.34 -8.71 L 287.62 -7.78 C 288.98 -7.5 289.66 -7.01 289.66 -6.29 C 289.66 -5.21 288.61 -4.65 286.5 -4.65 C 284.8 -4.65 283.06 -5.64 282.47 -7.22 L 277.36 -5.42 C 278.22 -1.71 281.76 0.31 286.22 0.31 C 289.11 0.31 291.83 -0.62 293.45 -2.63 C 294.25 -3.63 294.65 -4.87 294.65 -6.32 C 294.65 -9.46 292.79 -11.44 289.04 -12.28 L 284.8 -13.24 C 283.71 -13.48 282.97 -13.98 282.97 -14.63 C 282.97 -15.72 284.24 -16.12 285.88 -16.12 C 287.9 -16.12 289.2 -15.62 289.48 -13.92 L 294.25 -15.78 C 293.23 -19.25 290.04 -21.08 285.94 -21.08 Z M 322.74 0 L 322.74 -16.46 L 328.32 -16.46 L 328.32 -20.8 L 312.2 -20.8 L 312.2 -16.46 L 317.78 -16.46 L 317.78 0 Z" stroke-linecap="round" />
</g>
</g>
</g>
</svg>